<svg width="160" height="21" viewBox="0 0 160 21" fill="none" xmlns="http://www.w3.org/2000/svg">
<path d="M55.7159 8.52044H54.9587V8.47898H46.4982V12.476H51.8109C51.0358 14.8027 48.9532 16.473 46.4982 16.473C43.3833 16.473 40.8579 13.7885 40.8579 10.4775C40.8579 7.16646 43.3833 4.48198 46.4982 4.48198C47.936 4.48198 49.2441 5.05855 50.2401 6.00034L52.899 3.17396C51.2201 1.51071 48.9743 0.484985 46.4982 0.484985C41.3068 0.484985 37.0977 4.95912 37.0977 10.4775C37.0977 15.9958 41.3068 20.47 46.4982 20.47C51.6897 20.47 55.8987 15.9958 55.8987 10.4775C55.8987 9.80748 55.8339 9.15347 55.7159 8.52044Z" fill="#FFC107"/>
<path d="M46.4977 20.4699C48.9259 20.4699 51.1322 19.4822 52.8003 17.8759L49.8909 15.2589C48.9153 16.0475 47.7233 16.474 46.4977 16.4729C44.0527 16.4729 41.9765 14.8157 41.1944 12.5029L38.1289 15.0135C39.6847 18.2496 42.8442 20.4699 46.4977 20.4699Z" fill="#4CAF50"/>
<path d="M55.7158 8.52047H54.9585V8.479H46.498V12.476H51.8108C51.44 13.5834 50.7722 14.551 49.8898 15.2594L49.8912 15.2584L52.8006 17.8754C52.5948 18.0743 55.8986 15.4737 55.8986 10.4775C55.8986 9.80751 55.8337 9.1535 55.7158 8.52047Z" fill="#1976D2"/>
<path d="M38.1816 5.82647L41.2702 8.23416C42.1059 6.03481 44.1298 4.48198 46.4983 4.48198C47.9361 4.48198 49.2442 5.05855 50.2402 6.00034L52.8991 3.17396C51.2202 1.51071 48.9744 0.484985 46.4983 0.484985C42.8876 0.484985 39.7562 2.65186 38.1816 5.82647Z" fill="#FF3D00"/>
<path d="M76.7813 8.63747C76.5406 8.19627 76.2097 7.86036 75.7886 7.62973C75.3674 7.39911 74.8761 7.28379 74.3146 7.28379C73.6929 7.28379 73.1414 7.42418 72.6601 7.70494C72.1788 7.9857 71.8027 8.38679 71.532 8.90821C71.2613 9.42962 71.1259 10.0313 71.1259 10.7131C71.1259 11.415 71.2613 12.0267 71.532 12.5481C71.8128 13.0695 72.1988 13.4706 72.6902 13.7514C73.1815 14.0321 73.753 14.1725 74.4048 14.1725C75.207 14.1725 75.8638 13.9619 76.3752 13.5408C76.8866 13.1096 77.2225 12.513 77.3829 11.7509H73.7731V10.1416H79.4586V11.9765C79.3182 12.7085 79.0174 13.3854 78.5561 14.0071C78.0948 14.6288 77.4982 15.1301 76.7662 15.5111C76.0443 15.8822 75.2321 16.0677 74.3296 16.0677C73.3169 16.0677 72.3994 15.842 71.5771 15.3908C70.7649 14.9296 70.1232 14.2928 69.6519 13.4806C69.1907 12.6684 68.96 11.7459 68.96 10.7131C68.96 9.68031 69.1907 8.7578 69.6519 7.94559C70.1232 7.12336 70.7649 6.48663 71.5771 6.0354C72.3994 5.57415 73.3118 5.34352 74.3146 5.34352C75.4978 5.34352 76.5256 5.63431 77.398 6.21589C78.2703 6.78744 78.872 7.59464 79.2029 8.63747H76.7813ZM84.7165 16.1128C83.9143 16.1128 83.1924 15.9373 82.5506 15.5864C81.9089 15.2254 81.4025 14.719 81.0315 14.0672C80.6705 13.4155 80.49 12.6634 80.49 11.8111C80.49 10.9588 80.6755 10.2067 81.0465 9.55496C81.4276 8.90319 81.944 8.40183 82.5957 8.05088C83.2475 7.6899 83.9745 7.50941 84.7767 7.50941C85.5789 7.50941 86.3058 7.6899 86.9576 8.05088C87.6094 8.40183 88.1208 8.90319 88.4918 9.55496C88.8728 10.2067 89.0633 10.9588 89.0633 11.8111C89.0633 12.6634 88.8678 13.4155 88.4767 14.0672C88.0957 14.719 87.5743 15.2254 86.9125 15.5864C86.2607 15.9373 85.5287 16.1128 84.7165 16.1128ZM84.7165 14.2778C85.0975 14.2778 85.4535 14.1876 85.7844 14.0071C86.1253 13.8165 86.3961 13.5358 86.5966 13.1648C86.7972 12.7938 86.8974 12.3425 86.8974 11.8111C86.8974 11.0189 86.6869 10.4123 86.2657 9.99115C85.8546 9.55998 85.3482 9.34439 84.7466 9.34439C84.145 9.34439 83.6386 9.55998 83.2275 9.99115C82.8264 10.4123 82.6258 11.0189 82.6258 11.8111C82.6258 12.6032 82.8214 13.2149 83.2124 13.6461C83.6135 14.0672 84.1149 14.2778 84.7165 14.2778ZM94.308 16.1128C93.5058 16.1128 92.7839 15.9373 92.1421 15.5864C91.5004 15.2254 90.994 14.719 90.623 14.0672C90.262 13.4155 90.0815 12.6634 90.0815 11.8111C90.0815 10.9588 90.267 10.2067 90.638 9.55496C91.0191 8.90319 91.5355 8.40183 92.1872 8.05088C92.839 7.6899 93.566 7.50941 94.3682 7.50941C95.1703 7.50941 95.8973 7.6899 96.5491 8.05088C97.2009 8.40183 97.7123 8.90319 98.0833 9.55496C98.4643 10.2067 98.6548 10.9588 98.6548 11.8111C98.6548 12.6634 98.4593 13.4155 98.0682 14.0672C97.6872 14.719 97.1658 15.2254 96.504 15.5864C95.8522 15.9373 95.1202 16.1128 94.308 16.1128ZM94.308 14.2778C94.689 14.2778 95.045 14.1876 95.3759 14.0071C95.7168 13.8165 95.9876 13.5358 96.1881 13.1648C96.3887 12.7938 96.4889 12.3425 96.4889 11.8111C96.4889 11.0189 96.2784 10.4123 95.8572 9.99115C95.4461 9.55998 94.9397 9.34439 94.3381 9.34439C93.7365 9.34439 93.2301 9.55998 92.819 9.99115C92.4179 10.4123 92.2173 11.0189 92.2173 11.8111C92.2173 12.6032 92.4129 13.2149 92.8039 13.6461C93.205 14.0672 93.7064 14.2778 94.308 14.2778ZM103.463 7.50941C104.085 7.50941 104.631 7.63475 105.103 7.88543C105.574 8.12608 105.945 8.44194 106.216 8.833V7.64477H108.337V16.0376C108.337 16.8097 108.181 17.4965 107.87 18.0982C107.559 18.7098 107.093 19.1911 106.471 19.5421C105.85 19.9031 105.098 20.0836 104.215 20.0836C103.032 20.0836 102.059 19.8078 101.297 19.2563C100.545 18.7048 100.119 17.9528 100.019 17.0002H102.11C102.22 17.3812 102.456 17.682 102.817 17.9026C103.188 18.1333 103.634 18.2486 104.155 18.2486C104.767 18.2486 105.263 18.0631 105.644 17.6921C106.025 17.3311 106.216 16.7796 106.216 16.0376V14.7441C105.945 15.1351 105.569 15.461 105.088 15.7217C104.616 15.9824 104.075 16.1128 103.463 16.1128C102.761 16.1128 102.12 15.9323 101.538 15.5713C100.956 15.2103 100.495 14.704 100.154 14.0522C99.8234 13.3904 99.658 12.6333 99.658 11.781C99.658 10.9387 99.8234 10.1917 100.154 9.53992C100.495 8.88815 100.951 8.38679 101.523 8.03584C102.105 7.68488 102.751 7.50941 103.463 7.50941ZM106.216 11.8111C106.216 11.2997 106.116 10.8635 105.915 10.5025C105.714 10.1315 105.444 9.85077 105.103 9.66025C104.762 9.45971 104.396 9.35943 104.005 9.35943C103.614 9.35943 103.253 9.45469 102.922 9.64521C102.591 9.83573 102.32 10.1165 102.11 10.4875C101.909 10.8485 101.809 11.2797 101.809 11.781C101.809 12.2824 101.909 12.7236 102.11 13.1046C102.32 13.4756 102.591 13.7614 102.922 13.9619C103.263 14.1625 103.624 14.2628 104.005 14.2628C104.396 14.2628 104.762 14.1675 105.103 13.977C105.444 13.7764 105.714 13.4957 105.915 13.1347C106.116 12.7637 106.216 12.3225 106.216 11.8111ZM112.499 4.84717V15.9774H110.393V4.84717H112.499ZM122.325 11.6306C122.325 11.9314 122.305 12.2022 122.265 12.4428H116.174C116.224 13.0444 116.434 13.5157 116.805 13.8567C117.176 14.1976 117.633 14.368 118.174 14.368C118.956 14.368 119.513 14.0321 119.844 13.3603H122.115C121.874 14.1625 121.413 14.8243 120.731 15.3457C120.049 15.8571 119.212 16.1128 118.219 16.1128C117.417 16.1128 116.695 15.9373 116.053 15.5864C115.422 15.2254 114.925 14.719 114.564 14.0672C114.213 13.4155 114.038 12.6634 114.038 11.8111C114.038 10.9488 114.213 10.1917 114.564 9.53992C114.915 8.88815 115.407 8.38679 116.038 8.03584C116.67 7.68488 117.397 7.50941 118.219 7.50941C119.011 7.50941 119.718 7.67987 120.34 8.0208C120.972 8.36172 121.458 8.84804 121.799 9.47976C122.15 10.1015 122.325 10.8184 122.325 11.6306ZM120.144 11.029C120.134 10.4875 119.939 10.0563 119.558 9.73546C119.177 9.40456 118.711 9.23911 118.159 9.23911C117.638 9.23911 117.196 9.39954 116.835 9.72041C116.485 10.0313 116.269 10.4674 116.189 11.029H120.144Z" fill="white"/>
</svg>
