<svg width="19" height="21" viewBox="0 0 19 21" fill="none" xmlns="http://www.w3.org/2000/svg">
<path d="M18.7159 8.52044H17.9587V8.47898H9.4982V12.476H14.8109C14.0358 14.8027 11.9532 16.473 9.4982 16.473C6.38333 16.473 3.85787 13.7885 3.85787 10.4775C3.85787 7.16646 6.38333 4.48198 9.4982 4.48198C10.936 4.48198 12.2441 5.05855 13.2401 6.00034L15.899 3.17396C14.2201 1.51071 11.9743 0.484985 9.4982 0.484985C4.30675 0.484985 0.0976562 4.95912 0.0976562 10.4775C0.0976562 15.9958 4.30675 20.47 9.4982 20.47C14.6897 20.47 18.8987 15.9958 18.8987 10.4775C18.8987 9.80748 18.8339 9.15347 18.7159 8.52044Z" fill="#FFC107"/>
<path d="M9.49774 20.4699C11.9259 20.4699 14.1322 19.4822 15.8003 17.8759L12.8909 15.2589C11.9153 16.0475 10.7233 16.474 9.49774 16.4729C7.05266 16.4729 4.97655 14.8157 4.19442 12.5029L1.12891 15.0135C2.6847 18.2496 5.84422 20.4699 9.49774 20.4699Z" fill="#4CAF50"/>
<path d="M18.7158 8.52047H17.9585V8.479H9.49805V12.476H14.8108C14.44 13.5834 13.7722 14.551 12.8898 15.2594L12.8912 15.2584L15.8006 17.8754C15.5948 18.0743 18.8986 15.4737 18.8986 10.4775C18.8986 9.80751 18.8337 9.1535 18.7158 8.52047Z" fill="#1976D2"/>
<path d="M1.18164 5.82647L4.27019 8.23416C5.1059 6.03481 7.12984 4.48198 9.4983 4.48198C10.9361 4.48198 12.2442 5.05855 13.2402 6.00034L15.8991 3.17396C14.2202 1.51071 11.9744 0.484985 9.4983 0.484985C5.88755 0.484985 2.75623 2.65186 1.18164 5.82647Z" fill="#FF3D00"/>
</svg>
