<svg width="65" height="21" viewBox="0 0 65 21" fill="none" xmlns="http://www.w3.org/2000/svg">
<path d="M30.3496 10.5723H34.082V15.5898C33.5579 15.763 33.0156 15.8975 32.4551 15.9932C31.8945 16.0889 31.2656 16.1367 30.5684 16.1367C29.5521 16.1367 28.6908 15.9362 27.9844 15.5352C27.2826 15.1296 26.7493 14.5439 26.3848 13.7783C26.0202 13.0081 25.8379 12.0807 25.8379 10.9961C25.8379 9.95247 26.0407 9.04785 26.4463 8.28223C26.8519 7.51204 27.4421 6.91732 28.2168 6.49805C28.9915 6.07422 29.9303 5.8623 31.0332 5.8623C31.5755 5.8623 32.0996 5.91699 32.6055 6.02637C33.1159 6.13118 33.583 6.27702 34.0068 6.46387L33.4326 7.81738C33.0954 7.65788 32.7171 7.52344 32.2979 7.41406C31.8786 7.30469 31.4434 7.25 30.9922 7.25C30.2767 7.25 29.6592 7.40495 29.1396 7.71484C28.6247 8.02474 28.2282 8.46224 27.9502 9.02734C27.6722 9.58789 27.5332 10.251 27.5332 11.0166C27.5332 11.7594 27.6449 12.4111 27.8682 12.9717C28.0915 13.5322 28.4401 13.9697 28.9141 14.2842C29.3926 14.5941 30.0101 14.749 30.7666 14.749C31.1449 14.749 31.4661 14.7285 31.7305 14.6875C31.9948 14.6465 32.2386 14.6009 32.4619 14.5508V11.9736H30.3496V10.5723ZM44.8623 8.28906C45.71 8.28906 46.348 8.50781 46.7764 8.94531C47.2093 9.38281 47.4258 10.0846 47.4258 11.0508V16H45.8193V11.3379C45.8193 10.7637 45.7077 10.3307 45.4844 10.0391C45.2611 9.7474 44.9215 9.60156 44.4658 9.60156C43.8278 9.60156 43.3675 9.80664 43.085 10.2168C42.807 10.6224 42.668 11.2126 42.668 11.9873V16H41.0615V11.3379C41.0615 10.9551 41.0114 10.6361 40.9111 10.3809C40.8154 10.1211 40.6673 9.92741 40.4668 9.7998C40.2663 9.66764 40.0133 9.60156 39.708 9.60156C39.266 9.60156 38.9128 9.70182 38.6484 9.90234C38.3887 10.1029 38.2018 10.3991 38.0879 10.791C37.974 11.1784 37.917 11.6546 37.917 12.2197V16H36.3105V8.43262H37.5615L37.7871 9.45117H37.876C38.0309 9.18685 38.2223 8.97038 38.4502 8.80176C38.6826 8.62858 38.9401 8.50098 39.2227 8.41895C39.5052 8.33236 39.7992 8.28906 40.1045 8.28906C40.6696 8.28906 41.1458 8.38932 41.5332 8.58984C41.9206 8.78581 42.21 9.08659 42.4014 9.49219H42.5244C42.7614 9.08203 43.0918 8.77897 43.5156 8.58301C43.9395 8.38704 44.3883 8.28906 44.8623 8.28906ZM52.6348 8.28906C53.5918 8.28906 54.3141 8.50098 54.8018 8.9248C55.2939 9.34863 55.54 10.0094 55.54 10.9072V16H54.3984L54.0908 14.9268H54.0361C53.8219 15.2002 53.6009 15.4258 53.373 15.6035C53.1452 15.7812 52.8809 15.9134 52.5801 16C52.2839 16.0911 51.9215 16.1367 51.4932 16.1367C51.042 16.1367 50.6387 16.0547 50.2832 15.8906C49.9277 15.722 49.6475 15.4668 49.4424 15.125C49.2373 14.7832 49.1348 14.3503 49.1348 13.8262C49.1348 13.0469 49.4242 12.4613 50.0029 12.0693C50.5863 11.6774 51.4658 11.4609 52.6416 11.4199L53.9541 11.3721V10.9756C53.9541 10.4515 53.8311 10.0778 53.585 9.85449C53.3434 9.63118 53.0016 9.51953 52.5596 9.51953C52.1813 9.51953 51.8145 9.57422 51.459 9.68359C51.1035 9.79297 50.7572 9.92741 50.4199 10.0869L49.9004 8.95215C50.2695 8.75618 50.6888 8.59668 51.1582 8.47363C51.6322 8.35059 52.1243 8.28906 52.6348 8.28906ZM53.9473 12.3838L52.9697 12.418C52.1676 12.4453 51.6048 12.582 51.2812 12.8281C50.9577 13.0742 50.7959 13.4115 50.7959 13.8398C50.7959 14.2135 50.9076 14.487 51.1309 14.6602C51.3542 14.8288 51.6481 14.9131 52.0127 14.9131C52.5687 14.9131 53.029 14.7559 53.3936 14.4414C53.7627 14.1224 53.9473 13.6553 53.9473 13.04V12.3838ZM59.3955 8.43262V16H57.7891V8.43262H59.3955ZM58.6025 5.53418C58.8486 5.53418 59.0605 5.60026 59.2383 5.73242C59.4206 5.86458 59.5117 6.09245 59.5117 6.41602C59.5117 6.73503 59.4206 6.96289 59.2383 7.09961C59.0605 7.23177 58.8486 7.29785 58.6025 7.29785C58.3473 7.29785 58.1309 7.23177 57.9531 7.09961C57.7799 6.96289 57.6934 6.73503 57.6934 6.41602C57.6934 6.09245 57.7799 5.86458 57.9531 5.73242C58.1309 5.60026 58.3473 5.53418 58.6025 5.53418ZM63.3125 16H61.6992V5.36328H63.3125V16Z" fill="white"/>
<path d="M14.8561 9.03073H14.2519V8.99961H7.50098V11.9994H11.7402C11.1217 13.7457 9.45987 14.9992 7.50098 14.9992C5.01553 14.9992 3.00039 12.9845 3.00039 10.4995C3.00039 8.01455 5.01553 5.9998 7.50098 5.9998C8.64826 5.9998 9.69202 6.43253 10.4867 7.13935L12.6084 5.01812C11.2687 3.76982 9.47674 3 7.50098 3C3.35857 3 0 6.35791 0 10.4995C0 14.6411 3.35857 17.999 7.50098 17.999C11.6434 17.999 15.002 14.6411 15.002 10.4995C15.002 9.99667 14.9502 9.50583 14.8561 9.03073Z" fill="#FFC107"/>
<path d="M7.50197 18C9.43947 18 11.2 17.2587 12.531 16.0531L10.2094 14.089C9.43105 14.6809 8.47989 15.001 7.50197 15.0002C5.55096 15.0002 3.89437 13.7564 3.27029 12.0206L0.824219 13.9049C2.06563 16.3336 4.58671 18 7.50197 18Z" fill="#4CAF50"/>
<path d="M14.8551 9.02893H14.2509V8.9978H7.5V11.9976H11.7392C11.4433 12.8287 10.9105 13.5549 10.2064 14.0866L10.2075 14.0858L12.529 16.05C12.3648 16.1992 15.001 14.2475 15.001 10.4977C15.001 9.99486 14.9492 9.50402 14.8551 9.02893Z" fill="#1976D2"/>
<path d="M0.865234 7.00886L3.32968 8.81587C3.99652 7.16523 5.61148 5.9998 7.50135 5.9998C8.64863 5.9998 9.69239 6.43253 10.4871 7.13935L12.6088 5.01812C11.2691 3.76982 9.47711 3 7.50135 3C4.62023 3 2.12165 4.62627 0.865234 7.00886Z" fill="#FF3D00"/>
</svg>
