<svg width="267" height="68" viewBox="0 0 267 68" fill="none" xmlns="http://www.w3.org/2000/svg">
<path d="M79.1519 50.7307V22.3825H64.9556V18.7891H96.8972V22.3825H82.7453V50.7307H79.1519ZM98.7955 50.7307V16.5709H102.433V25H119.646C120.622 25 121.51 25.2514 122.308 25.7541C123.136 26.2273 123.787 26.878 124.26 27.7061C124.763 28.5047 125.014 29.3919 125.014 30.3679V50.7307H121.376V30.3679C121.376 29.8947 121.199 29.4955 120.844 29.1701C120.519 28.8152 120.119 28.6378 119.646 28.6378H104.208C103.735 28.6378 103.321 28.8152 102.966 29.1701C102.611 29.4955 102.433 29.8947 102.433 30.3679V50.7307H98.7955ZM127.009 50.7307V30.3679C127.009 29.3919 127.246 28.5047 127.719 27.7061C128.222 26.878 128.872 26.2273 129.671 25.7541C130.499 25.2514 131.401 25 132.377 25H146.84V28.6378H132.377C131.904 28.6378 131.49 28.8152 131.135 29.1701C130.81 29.4955 130.647 29.8947 130.647 30.3679V50.7307H127.009ZM153.748 50.7307C152.772 50.7307 151.87 50.4941 151.042 50.0209C150.243 49.5181 149.592 48.8675 149.09 48.0689C148.616 47.2408 148.38 46.3387 148.38 45.3627V36.0464H170.916V30.3679C170.916 29.8947 170.739 29.4955 170.384 29.1701C170.059 28.8152 169.66 28.6378 169.186 28.6378H148.38V25H169.186C170.192 25 171.094 25.2514 171.892 25.7541C172.721 26.2273 173.371 26.878 173.844 27.7061C174.347 28.5047 174.599 29.3919 174.599 30.3679V50.7307H153.748ZM153.748 47.0929H170.916V39.6842H152.018V45.3627C152.018 45.836 152.18 46.25 152.506 46.6049C152.861 46.9303 153.275 47.0929 153.748 47.0929ZM189.807 50.7307L175.61 25H179.869L191.936 47.1816L204.003 25H208.262L194.021 50.7307H189.807ZM214.727 50.7307C213.751 50.7307 212.849 50.4941 212.021 50.0209C211.223 49.5181 210.572 48.8675 210.069 48.0689C209.596 47.2408 209.359 46.3387 209.359 45.3627V30.3679C209.359 29.3919 209.596 28.5047 210.069 27.7061C210.572 26.878 211.223 26.2273 212.021 25.7541C212.849 25.2514 213.751 25 214.727 25H230.166C231.171 25 232.073 25.2514 232.872 25.7541C233.7 26.2273 234.351 26.878 234.824 27.7061C235.327 28.5047 235.578 29.3919 235.578 30.3679V45.3627C235.578 46.3387 235.327 47.2408 234.824 48.0689C234.351 48.8675 233.7 49.5181 232.872 50.0209C232.073 50.4941 231.171 50.7307 230.166 50.7307H214.727ZM214.727 47.0929H230.166C230.639 47.0929 231.038 46.9303 231.364 46.6049C231.719 46.25 231.896 45.836 231.896 45.3627V30.3679C231.896 29.8947 231.719 29.4955 231.364 29.1701C231.038 28.8152 230.639 28.6378 230.166 28.6378H214.727C214.254 28.6378 213.84 28.8152 213.485 29.1701C213.16 29.4955 212.997 29.8947 212.997 30.3679V45.3627C212.997 45.836 213.16 46.25 213.485 46.6049C213.84 46.9303 214.254 47.0929 214.727 47.0929ZM243.113 50.7307C242.137 50.7307 241.235 50.4941 240.407 50.0209C239.609 49.5181 238.958 48.8675 238.455 48.0689C237.982 47.2408 237.745 46.3387 237.745 45.3627V45.0078H241.383V45.3627C241.383 45.836 241.546 46.25 241.871 46.6049C242.226 46.9303 242.64 47.0929 243.113 47.0929H258.552C259.025 47.0929 259.424 46.9303 259.75 46.6049C260.104 46.25 260.282 45.836 260.282 45.3627V41.4144C260.282 40.9412 260.104 40.5419 259.75 40.2166C259.424 39.8617 259.025 39.6842 258.552 39.6842H243.113C242.137 39.6842 241.235 39.4476 240.407 38.9744C239.609 38.4716 238.958 37.821 238.455 37.0224C237.982 36.1943 237.745 35.2923 237.745 34.3163V30.3679C237.745 29.3919 237.982 28.5047 238.455 27.7061C238.958 26.878 239.609 26.2273 240.407 25.7541C241.235 25.2514 242.137 25 243.113 25H258.552C259.557 25 260.459 25.2514 261.258 25.7541C262.086 26.2273 262.737 26.878 263.21 27.7061C263.713 28.5047 263.964 29.3919 263.964 30.3679V30.7228H260.282V30.3679C260.282 29.8947 260.104 29.4955 259.75 29.1701C259.424 28.8152 259.025 28.6378 258.552 28.6378H243.113C242.64 28.6378 242.226 28.8152 241.871 29.1701C241.546 29.4955 241.383 29.8947 241.383 30.3679V34.3163C241.383 34.7895 241.546 35.2035 241.871 35.5584C242.226 35.8838 242.64 36.0464 243.113 36.0464H258.552C259.557 36.0464 260.459 36.2978 261.258 36.8006C262.086 37.2738 262.737 37.9245 263.21 38.7526C263.713 39.5511 263.964 40.4384 263.964 41.4144V45.3627C263.964 46.3387 263.713 47.2408 263.21 48.0689C262.737 48.8675 262.086 49.5181 261.258 50.0209C260.459 50.4941 259.557 50.7307 258.552 50.7307H243.113Z" fill="white"/>
<path d="M50.1042 17.5951L54.1583 20.6884V47.7529L34.1309 59.2875V64.0866L56.2415 51.3522C57.5305 50.6098 58.3246 49.2378 58.3246 47.7529V20.6884C58.3246 19.2035 57.5305 17.8315 56.2415 17.0891L53.5762 15.5171L50.1042 17.5951Z" fill="white"/>
<path d="M7.16631 47.7529L26.4952 59.849V64.0052L20.9401 60.5417L5.08315 51.3522C3.79409 50.6098 3 49.2378 3 47.7529L3.58046 40.4538L6.90359 38.3757L7.16631 47.7529Z" fill="white"/>
<path d="M7.16631 30.6094V20.6884L30.6623 7.15612L43.1604 14.1317L46.6323 12.0536L32.7455 3.55681C31.4564 2.8144 29.8682 2.81439 28.5792 3.55681L5.08315 17.0891C3.79409 17.8315 3 19.2035 3 20.6884V32.8342L7.16631 30.6094Z" fill="white"/>
<path d="M54.1583 20.6884H56.2389V19.6588L55.4204 19.0343L54.1583 20.6884ZM54.1583 47.7529L55.1967 49.5559L56.2389 48.9556V47.7529H54.1583ZM34.1309 59.2875L33.0925 57.4846L32.0503 58.0848V59.2875H34.1309ZM34.1309 64.0866H32.0503V67.6859L35.1693 65.8895L34.1309 64.0866ZM56.2415 51.3522L57.2799 53.1552L56.2415 51.3522ZM56.2415 17.0891L55.1845 18.8812L55.1938 18.8867L55.2031 18.892L56.2415 17.0891ZM53.5762 15.5171L54.6331 13.725L53.5683 13.0969L52.5076 13.7318L53.5762 15.5171ZM26.4952 59.849H28.5758V58.6967L27.5989 58.0853L26.4952 59.849ZM7.16631 47.7529L5.08652 47.8112L5.11773 48.9253L6.06256 49.5166L7.16631 47.7529ZM26.4952 64.0052L25.3944 65.7707L28.5758 67.7542V64.0052H26.4952ZM20.9401 60.5417L22.0409 58.7762L22.0124 58.7584L21.9833 58.7416L20.9401 60.5417ZM5.08315 51.3522L6.1264 49.5521L6.12154 49.5493L5.08315 51.3522ZM3 47.7529L0.925942 47.588L0.919394 47.6703V47.7529H3ZM3.58046 40.4538L2.47732 38.6897L1.58942 39.245L1.5064 40.2889L3.58046 40.4538ZM6.90359 38.3757L8.98338 38.3175L8.88161 34.6849L5.80045 36.6117L6.90359 38.3757ZM7.16631 30.6094L8.14637 32.4447L9.24691 31.857V30.6094H7.16631ZM7.16631 20.6884L6.12791 18.8854L5.0857 19.4857V20.6884H7.16631ZM30.6623 7.15612L31.6763 5.33934L30.6462 4.76439L29.6239 5.35316L30.6623 7.15612ZM43.1604 14.1317L42.1464 15.9485L43.1968 16.5347L44.2289 15.917L43.1604 14.1317ZM46.6323 12.0536L47.7008 13.8389L50.6508 12.0732L47.7182 10.2789L46.6323 12.0536ZM32.7455 3.55681L33.8314 1.78206L33.8078 1.76764L33.7839 1.75386L32.7455 3.55681ZM28.5792 3.55681L27.5408 1.75386V1.75386L28.5792 3.55681ZM5.08315 17.0891L6.12155 18.892L6.12155 18.892L5.08315 17.0891ZM3 32.8342H0.919394V36.304L3.98007 34.6696L3 32.8342ZM4.64892 29.6325C3.64575 30.1929 3.28681 31.4604 3.84722 32.4636C4.40762 33.4667 5.67514 33.8257 6.67831 33.2653L4.64892 29.6325ZM4.68637 40.695C3.67192 41.2348 3.28708 42.4947 3.82679 43.5091C4.36651 44.5236 5.62641 44.9084 6.64086 44.3687L4.68637 40.695ZM26.4952 31.4489H28.5758V27.9852L25.5179 29.6121L26.4952 31.4489ZM36.2165 25.9074L35.148 24.1221L34.1359 24.7279V25.9074H36.2165ZM54.1583 20.6884L55.4204 19.0343L51.3663 15.941L50.1042 17.5951L48.8422 19.2492L52.8963 22.3425L54.1583 20.6884ZM54.1583 47.7529H56.2389V20.6884H54.1583H52.0777V47.7529H54.1583ZM34.1309 59.2875L35.1693 61.0905L55.1967 49.5559L54.1583 47.7529L53.1199 45.95L33.0925 57.4846L34.1309 59.2875ZM34.1309 64.0866H36.2115V59.2875H34.1309H32.0503V64.0866H34.1309ZM56.2415 51.3522L55.2031 49.5493L33.0925 62.2836L34.1309 64.0866L35.1693 65.8895L57.2799 53.1552L56.2415 51.3522ZM58.3246 47.7529H56.244C56.244 48.4919 55.8488 49.1774 55.2031 49.5493L56.2415 51.3522L57.2799 53.1552C59.2123 52.0422 60.4052 49.9836 60.4052 47.7529H58.3246ZM58.3246 20.6884H56.244V47.7529H58.3246H60.4052V20.6884H58.3246ZM56.2415 17.0891L55.2031 18.892C55.8488 19.2639 56.244 19.9494 56.244 20.6884H58.3246H60.4052C60.4052 18.4577 59.2123 16.3991 57.2799 15.2861L56.2415 17.0891ZM53.5762 15.5171L52.5192 17.3092L55.1845 18.8812L56.2415 17.0891L57.2985 15.297L54.6331 13.725L53.5762 15.5171ZM50.1042 17.5951L51.1728 19.3804L54.6447 17.3023L53.5762 15.5171L52.5076 13.7318L49.0357 15.8099L50.1042 17.5951ZM26.4952 59.849L27.5989 58.0853L8.27005 45.9892L7.16631 47.7529L6.06256 49.5166L25.3914 61.6128L26.4952 59.849ZM26.4952 64.0052H28.5758V59.849H26.4952H24.4145V64.0052H26.4952ZM20.9401 60.5417L19.8393 62.3073L25.3944 65.7707L26.4952 64.0052L27.5959 62.2396L22.0409 58.7762L20.9401 60.5417ZM5.08315 51.3522L4.03991 53.1524L19.8968 62.3419L20.9401 60.5417L21.9833 58.7416L6.12639 49.5521L5.08315 51.3522ZM3 47.7529H0.919394C0.919394 49.9836 2.11235 52.0422 4.04476 53.1552L5.08315 51.3522L6.12154 49.5493C5.47583 49.1774 5.08061 48.4919 5.08061 47.7529H3ZM3.58046 40.4538L1.5064 40.2889L0.925942 47.588L3 47.7529L5.07406 47.9179L5.65452 40.6187L3.58046 40.4538ZM6.90359 38.3757L5.80045 36.6117L2.47732 38.6897L3.58046 40.4538L4.6836 42.2179L8.00673 40.1398L6.90359 38.3757ZM7.16631 47.7529L9.2461 47.6946L8.98338 38.3175L6.90359 38.3757L4.8238 38.434L5.08652 47.8112L7.16631 47.7529ZM7.16631 30.6094H9.24691V20.6884H7.16631H5.0857V30.6094H7.16631ZM7.16631 20.6884L8.2047 22.4913L31.7007 8.95908L30.6623 7.15612L29.6239 5.35316L6.12791 18.8854L7.16631 20.6884ZM30.6623 7.15612L29.6483 8.97291L42.1464 15.9485L43.1604 14.1317L44.1744 12.3149L31.6763 5.33934L30.6623 7.15612ZM43.1604 14.1317L44.2289 15.917L47.7008 13.8389L46.6323 12.0536L45.5638 10.2684L42.0918 12.3464L43.1604 14.1317ZM46.6323 12.0536L47.7182 10.2789L33.8314 1.78206L32.7455 3.55681L31.6596 5.33157L45.5464 13.8284L46.6323 12.0536ZM32.7455 3.55681L33.7839 1.75386C31.852 0.64124 29.4726 0.64124 27.5408 1.75386L28.5792 3.55681L29.6176 5.35977C30.2638 4.98755 31.0608 4.98755 31.7071 5.35977L32.7455 3.55681ZM28.5792 3.55681L27.5408 1.75386L4.04476 15.2861L5.08315 17.0891L6.12155 18.892L29.6176 5.35977L28.5792 3.55681ZM5.08315 17.0891L4.04476 15.2861C2.11236 16.3991 0.919394 18.4577 0.919394 20.6884H3H5.08061C5.08061 19.9494 5.47583 19.2639 6.12155 18.892L5.08315 17.0891ZM3 20.6884H0.919394V32.8342H3H5.08061V20.6884H3ZM3 32.8342L3.98007 34.6696L8.14637 32.4447L7.16631 30.6094L6.18624 28.7741L2.01993 30.9989L3 32.8342ZM5.66362 31.4489L6.67831 33.2653L41.3975 13.87L40.3828 12.0536L39.3682 10.2372L4.64892 29.6325L5.66362 31.4489ZM5.66362 42.5319L6.64086 44.3687L27.4724 33.2857L26.4952 31.4489L25.5179 29.6121L4.68637 40.695L5.66362 42.5319ZM26.4952 60.5417H28.5758V31.4489H26.4952H24.4145V60.5417H26.4952ZM36.2165 60.5417H38.2971V25.9074H36.2165H34.1359V60.5417H36.2165ZM50.1042 17.5951L49.0357 15.8099L35.148 24.1221L36.2165 25.9074L37.2851 27.6926L51.1728 19.3804L50.1042 17.5951Z" fill="white"/>
</svg>
