<svg width="291" height="16" viewBox="0 0 291 16" fill="none" xmlns="http://www.w3.org/2000/svg">
<path d="M4.14305 11.904V9.942H13.5751V11.904H4.14305ZM10.4071 1.5L16.8871 15H14.3491L8.46306 2.4H9.38106L3.49505 15H0.957055L7.43705 1.5H10.4071ZM16.0382 6.612V5.55L18.2162 4.992L19.1882 2.148H20.5562V4.812H25.2902V6.612H20.5562V11.022C20.5562 11.874 20.7362 12.474 21.0962 12.822C21.4682 13.158 22.0682 13.326 22.8962 13.326C23.4242 13.326 23.8922 13.272 24.3002 13.164C24.7082 13.044 25.0982 12.876 25.4702 12.66V14.586C25.1582 14.742 24.7142 14.892 24.1382 15.036C23.5742 15.18 22.9922 15.252 22.3922 15.252C21.3962 15.252 20.5922 15.09 19.9802 14.766C19.3682 14.43 18.9182 13.974 18.6302 13.398C18.3542 12.81 18.2162 12.138 18.2162 11.382V6.612H16.0382ZM27.1746 1.14H29.5146V15H27.1746V1.14ZM33.5646 4.56C34.5246 4.56 35.3406 4.752 36.0126 5.136C36.6846 5.52 37.1946 6.072 37.5426 6.792C37.9026 7.5 38.0826 8.358 38.0826 9.366V15H35.7426V9.744C35.7426 8.676 35.4906 7.872 34.9866 7.332C34.4946 6.78 33.7686 6.504 32.8086 6.504C32.1486 6.504 31.5666 6.654 31.0626 6.954C30.5706 7.242 30.1866 7.65 29.9106 8.178C29.6466 8.706 29.5146 9.324 29.5146 10.032L28.6866 9.582C28.7946 8.526 29.0706 7.626 29.5146 6.882C29.9586 6.138 30.5286 5.568 31.2246 5.172C31.9206 4.764 32.7006 4.56 33.5646 4.56ZM40.4285 1.14H42.7685V15H40.4285V1.14ZM50.8069 15.252C49.6189 15.252 48.5629 15.03 47.6389 14.586C46.7149 14.13 45.9889 13.5 45.4609 12.696C44.9329 11.892 44.6689 10.956 44.6689 9.888C44.6689 8.832 44.9149 7.908 45.4069 7.116C45.9109 6.312 46.6009 5.688 47.4769 5.244C48.3649 4.788 49.3789 4.56 50.5189 4.56C51.6589 4.56 52.6429 4.818 53.4709 5.334C54.3109 5.838 54.9589 6.552 55.4149 7.476C55.8709 8.4 56.0989 9.486 56.0989 10.734H46.5049V8.952H54.9289L53.7589 9.618C53.7229 8.946 53.5609 8.37 53.2729 7.89C52.9969 7.41 52.6189 7.044 52.1389 6.792C51.6709 6.528 51.1129 6.396 50.4649 6.396C49.7809 6.396 49.1809 6.534 48.6649 6.81C48.1609 7.086 47.7649 7.476 47.4769 7.98C47.1889 8.472 47.0449 9.06 47.0449 9.744C47.0449 10.5 47.2129 11.154 47.5489 11.706C47.8969 12.258 48.3829 12.684 49.0069 12.984C49.6429 13.272 50.3929 13.416 51.2569 13.416C52.0369 13.416 52.8349 13.296 53.6509 13.056C54.4669 12.804 55.1869 12.456 55.8109 12.012V13.704C55.1869 14.184 54.4249 14.562 53.5249 14.838C52.6369 15.114 51.7309 15.252 50.8069 15.252ZM56.6613 6.612V5.55L58.8393 4.992L59.8113 2.148H61.1793V4.812H65.9133V6.612H61.1793V11.022C61.1793 11.874 61.3593 12.474 61.7193 12.822C62.0913 13.158 62.6913 13.326 63.5193 13.326C64.0473 13.326 64.5153 13.272 64.9233 13.164C65.3313 13.044 65.7213 12.876 66.0933 12.66V14.586C65.7813 14.742 65.3373 14.892 64.7613 15.036C64.1973 15.18 63.6153 15.252 63.0153 15.252C62.0193 15.252 61.2153 15.09 60.6033 14.766C59.9913 14.43 59.5413 13.974 59.2533 13.398C58.9773 12.81 58.8393 12.138 58.8393 11.382V6.612H56.6613ZM73.0081 15.252C71.8201 15.252 70.7641 15.03 69.8401 14.586C68.9161 14.13 68.1901 13.5 67.6621 12.696C67.1341 11.892 66.8701 10.956 66.8701 9.888C66.8701 8.832 67.1161 7.908 67.6081 7.116C68.1121 6.312 68.8021 5.688 69.6781 5.244C70.5661 4.788 71.5801 4.56 72.7201 4.56C73.8601 4.56 74.8441 4.818 75.6721 5.334C76.5121 5.838 77.1601 6.552 77.6161 7.476C78.0721 8.4 78.3001 9.486 78.3001 10.734H68.7061V8.952H77.1301L75.9601 9.618C75.9241 8.946 75.7621 8.37 75.4741 7.89C75.1981 7.41 74.8201 7.044 74.3401 6.792C73.8721 6.528 73.3141 6.396 72.6661 6.396C71.9821 6.396 71.3821 6.534 70.8661 6.81C70.3621 7.086 69.9661 7.476 69.6781 7.98C69.3901 8.472 69.2461 9.06 69.2461 9.744C69.2461 10.5 69.4141 11.154 69.7501 11.706C70.0981 12.258 70.5841 12.684 71.2081 12.984C71.8441 13.272 72.5941 13.416 73.4581 13.416C74.2381 13.416 75.0361 13.296 75.8521 13.056C76.6681 12.804 77.3881 12.456 78.0121 12.012V13.704C77.3881 14.184 76.6261 14.562 75.7261 14.838C74.8381 15.114 73.9321 15.252 73.0081 15.252ZM90.7734 11.904C90.7734 12.588 90.5814 13.182 90.1974 13.686C89.8134 14.19 89.2314 14.58 88.4514 14.856C87.6714 15.12 86.6934 15.252 85.5174 15.252C84.3054 15.252 83.2554 15.102 82.3674 14.802C81.4794 14.49 80.7894 14.058 80.2974 13.506C79.8174 12.942 79.5594 12.294 79.5234 11.562H81.8994C81.9714 11.946 82.1634 12.288 82.4754 12.588C82.7994 12.876 83.2194 13.098 83.7354 13.254C84.2634 13.41 84.8634 13.488 85.5354 13.488C86.5074 13.488 87.2394 13.374 87.7314 13.146C88.2234 12.906 88.4694 12.546 88.4694 12.066C88.4694 11.742 88.3014 11.496 87.9654 11.328C87.6414 11.16 87.0234 11.034 86.1114 10.95L84.1134 10.77C83.0334 10.674 82.1814 10.482 81.5574 10.194C80.9334 9.894 80.4894 9.534 80.2254 9.114C79.9614 8.682 79.8294 8.226 79.8294 7.746C79.8294 7.05 80.0454 6.468 80.4774 6C80.9094 5.532 81.5094 5.178 82.2774 4.938C83.0454 4.686 83.9394 4.56 84.9594 4.56C86.0154 4.56 86.9574 4.71 87.7854 5.01C88.6134 5.298 89.2734 5.706 89.7654 6.234C90.2574 6.75 90.5334 7.35 90.5934 8.034H88.2174C88.1694 7.758 88.0254 7.494 87.7854 7.242C87.5574 6.978 87.2034 6.762 86.7234 6.594C86.2554 6.414 85.6254 6.324 84.8334 6.324C83.9934 6.324 83.3334 6.432 82.8534 6.648C82.3854 6.864 82.1514 7.182 82.1514 7.602C82.1514 7.866 82.2954 8.094 82.5834 8.286C82.8714 8.466 83.4054 8.592 84.1854 8.664L86.7594 8.898C87.7914 8.994 88.5954 9.18 89.1714 9.456C89.7594 9.72 90.1734 10.062 90.4134 10.482C90.6534 10.902 90.7734 11.376 90.7734 11.904ZM99.3604 7.584H104.85C105.642 7.584 106.266 7.404 106.722 7.044C107.19 6.684 107.424 6.192 107.424 5.568C107.424 4.932 107.19 4.44 106.722 4.092C106.266 3.732 105.642 3.552 104.85 3.552H99.0184L100.08 2.22V15H97.7044V1.5H105.066C106.014 1.5 106.842 1.674 107.55 2.022C108.27 2.358 108.828 2.832 109.224 3.444C109.632 4.044 109.836 4.752 109.836 5.568C109.836 6.36 109.632 7.062 109.224 7.674C108.828 8.274 108.27 8.748 107.55 9.096C106.842 9.432 106.014 9.6 105.066 9.6H99.3604V7.584ZM102.024 8.682H104.814L110.178 15H107.334L102.024 8.682ZM111.936 4.74L113.106 4.956L114.276 4.74V15H111.936V4.74ZM113.106 3.462C112.662 3.462 112.296 3.342 112.008 3.102C111.72 2.85 111.576 2.526 111.576 2.13C111.576 1.734 111.72 1.416 112.008 1.176C112.296 0.924 112.662 0.797999 113.106 0.797999C113.562 0.797999 113.928 0.924 114.204 1.176C114.492 1.416 114.636 1.734 114.636 2.13C114.636 2.526 114.492 2.85 114.204 3.102C113.928 3.342 113.562 3.462 113.106 3.462ZM127.301 11.904C127.301 12.588 127.109 13.182 126.725 13.686C126.341 14.19 125.759 14.58 124.979 14.856C124.199 15.12 123.221 15.252 122.045 15.252C120.833 15.252 119.783 15.102 118.895 14.802C118.007 14.49 117.317 14.058 116.825 13.506C116.345 12.942 116.087 12.294 116.051 11.562H118.427C118.499 11.946 118.691 12.288 119.003 12.588C119.327 12.876 119.747 13.098 120.263 13.254C120.791 13.41 121.391 13.488 122.063 13.488C123.035 13.488 123.767 13.374 124.259 13.146C124.751 12.906 124.997 12.546 124.997 12.066C124.997 11.742 124.829 11.496 124.493 11.328C124.169 11.16 123.551 11.034 122.639 10.95L120.641 10.77C119.561 10.674 118.709 10.482 118.085 10.194C117.461 9.894 117.017 9.534 116.753 9.114C116.489 8.682 116.357 8.226 116.357 7.746C116.357 7.05 116.573 6.468 117.005 6C117.437 5.532 118.037 5.178 118.805 4.938C119.573 4.686 120.467 4.56 121.487 4.56C122.543 4.56 123.485 4.71 124.313 5.01C125.141 5.298 125.801 5.706 126.293 6.234C126.785 6.75 127.061 7.35 127.121 8.034H124.745C124.697 7.758 124.553 7.494 124.313 7.242C124.085 6.978 123.731 6.762 123.251 6.594C122.783 6.414 122.153 6.324 121.361 6.324C120.521 6.324 119.861 6.432 119.381 6.648C118.913 6.864 118.679 7.182 118.679 7.602C118.679 7.866 118.823 8.094 119.111 8.286C119.399 8.466 119.933 8.592 120.713 8.664L123.287 8.898C124.319 8.994 125.123 9.18 125.699 9.456C126.287 9.72 126.701 10.062 126.941 10.482C127.181 10.902 127.301 11.376 127.301 11.904ZM134.76 15.252C133.572 15.252 132.516 15.03 131.592 14.586C130.668 14.13 129.942 13.5 129.414 12.696C128.886 11.892 128.622 10.956 128.622 9.888C128.622 8.832 128.868 7.908 129.36 7.116C129.864 6.312 130.554 5.688 131.43 5.244C132.318 4.788 133.332 4.56 134.472 4.56C135.612 4.56 136.596 4.818 137.424 5.334C138.264 5.838 138.912 6.552 139.368 7.476C139.824 8.4 140.052 9.486 140.052 10.734H130.458V8.952H138.882L137.712 9.618C137.676 8.946 137.514 8.37 137.226 7.89C136.95 7.41 136.572 7.044 136.092 6.792C135.624 6.528 135.066 6.396 134.418 6.396C133.734 6.396 133.134 6.534 132.618 6.81C132.114 7.086 131.718 7.476 131.43 7.98C131.142 8.472 130.998 9.06 130.998 9.744C130.998 10.5 131.166 11.154 131.502 11.706C131.85 12.258 132.336 12.684 132.96 12.984C133.596 13.272 134.346 13.416 135.21 13.416C135.99 13.416 136.788 13.296 137.604 13.056C138.42 12.804 139.14 12.456 139.764 12.012V13.704C139.14 14.184 138.378 14.562 137.478 14.838C136.59 15.114 135.684 15.252 134.76 15.252ZM156.245 15L155.849 11.22L156.317 9.906L155.849 8.61L156.245 4.812H158.657L158.117 9.906L158.657 15H156.245ZM156.965 9.906C156.737 10.974 156.359 11.91 155.831 12.714C155.303 13.518 154.649 14.142 153.869 14.586C153.101 15.03 152.243 15.252 151.295 15.252C150.299 15.252 149.417 15.03 148.649 14.586C147.881 14.13 147.281 13.5 146.849 12.696C146.417 11.892 146.201 10.962 146.201 9.906C146.201 8.838 146.417 7.908 146.849 7.116C147.281 6.312 147.881 5.688 148.649 5.244C149.417 4.788 150.299 4.56 151.295 4.56C152.243 4.56 153.101 4.782 153.869 5.226C154.649 5.67 155.303 6.294 155.831 7.098C156.371 7.89 156.749 8.826 156.965 9.906ZM148.577 9.906C148.577 10.59 148.715 11.196 148.991 11.724C149.279 12.24 149.669 12.648 150.161 12.948C150.653 13.236 151.217 13.38 151.853 13.38C152.501 13.38 153.101 13.236 153.653 12.948C154.205 12.648 154.691 12.24 155.111 11.724C155.543 11.196 155.885 10.59 156.137 9.906C155.885 9.222 155.543 8.622 155.111 8.106C154.691 7.578 154.205 7.17 153.653 6.882C153.101 6.582 152.501 6.432 151.853 6.432C151.217 6.432 150.653 6.582 150.161 6.882C149.669 7.17 149.279 7.578 148.991 8.106C148.715 8.622 148.577 9.222 148.577 9.906ZM160.423 4.812H162.763L163.375 8.484V15H161.035V8.142L160.423 4.812ZM167.425 4.56C168.385 4.56 169.201 4.752 169.873 5.136C170.545 5.52 171.055 6.072 171.403 6.792C171.763 7.5 171.943 8.358 171.943 9.366V15H169.603V9.744C169.603 8.676 169.351 7.872 168.847 7.332C168.355 6.78 167.629 6.504 166.669 6.504C166.009 6.504 165.427 6.654 164.923 6.954C164.431 7.242 164.047 7.65 163.771 8.178C163.507 8.706 163.375 9.324 163.375 10.032L162.547 9.582C162.655 8.526 162.931 7.626 163.375 6.882C163.819 6.138 164.389 5.568 165.085 5.172C165.781 4.764 166.561 4.56 167.425 4.56ZM183.826 15L183.43 11.13L183.952 9.924L183.448 8.538L184.204 1.14H186.616L185.698 9.762L186.22 15H183.826ZM184.51 9.906C184.282 10.974 183.904 11.91 183.376 12.714C182.848 13.518 182.194 14.142 181.414 14.586C180.646 15.03 179.788 15.252 178.84 15.252C177.844 15.252 176.962 15.03 176.194 14.586C175.426 14.13 174.826 13.5 174.394 12.696C173.962 11.892 173.746 10.962 173.746 9.906C173.746 8.838 173.962 7.908 174.394 7.116C174.826 6.312 175.426 5.688 176.194 5.244C176.962 4.788 177.844 4.56 178.84 4.56C179.788 4.56 180.646 4.782 181.414 5.226C182.194 5.67 182.848 6.294 183.376 7.098C183.916 7.89 184.294 8.826 184.51 9.906ZM176.122 9.906C176.122 10.59 176.26 11.196 176.536 11.724C176.824 12.24 177.214 12.648 177.706 12.948C178.198 13.236 178.762 13.38 179.398 13.38C180.046 13.38 180.646 13.236 181.198 12.948C181.75 12.648 182.236 12.24 182.656 11.724C183.088 11.196 183.43 10.59 183.682 9.906C183.43 9.222 183.088 8.622 182.656 8.106C182.236 7.578 181.75 7.17 181.198 6.882C180.646 6.582 180.046 6.432 179.398 6.432C178.762 6.432 178.198 6.582 177.706 6.882C177.214 7.17 176.824 7.578 176.536 8.106C176.26 8.622 176.122 9.222 176.122 9.906ZM194.657 7.404H204.359V9.492H194.657V7.404ZM204.647 1.5V3.588H194.585L195.881 2.238V15H193.505V1.5H204.647ZM215.852 15L215.456 11.22L215.924 9.906L215.456 8.61L215.852 4.812H218.264L217.724 9.906L218.264 15H215.852ZM216.572 9.906C216.344 10.974 215.966 11.91 215.438 12.714C214.91 13.518 214.256 14.142 213.476 14.586C212.708 15.03 211.85 15.252 210.902 15.252C209.906 15.252 209.024 15.03 208.256 14.586C207.488 14.13 206.888 13.5 206.456 12.696C206.024 11.892 205.808 10.962 205.808 9.906C205.808 8.838 206.024 7.908 206.456 7.116C206.888 6.312 207.488 5.688 208.256 5.244C209.024 4.788 209.906 4.56 210.902 4.56C211.85 4.56 212.708 4.782 213.476 5.226C214.256 5.67 214.91 6.294 215.438 7.098C215.978 7.89 216.356 8.826 216.572 9.906ZM208.184 9.906C208.184 10.59 208.322 11.196 208.598 11.724C208.886 12.24 209.276 12.648 209.768 12.948C210.26 13.236 210.824 13.38 211.46 13.38C212.108 13.38 212.708 13.236 213.26 12.948C213.812 12.648 214.298 12.24 214.718 11.724C215.15 11.196 215.492 10.59 215.744 9.906C215.492 9.222 215.15 8.622 214.718 8.106C214.298 7.578 213.812 7.17 213.26 6.882C212.708 6.582 212.108 6.432 211.46 6.432C210.824 6.432 210.26 6.582 209.768 6.882C209.276 7.17 208.886 7.578 208.598 8.106C208.322 8.622 208.184 9.222 208.184 9.906ZM220.03 4.812H222.37L222.982 8.484V15H220.642V8.142L220.03 4.812ZM227.032 4.56C227.992 4.56 228.808 4.752 229.48 5.136C230.152 5.52 230.662 6.072 231.01 6.792C231.37 7.5 231.55 8.358 231.55 9.366V15H229.21V9.744C229.21 8.676 228.958 7.872 228.454 7.332C227.962 6.78 227.236 6.504 226.276 6.504C225.616 6.504 225.034 6.654 224.53 6.954C224.038 7.242 223.654 7.65 223.378 8.178C223.114 8.706 222.982 9.324 222.982 10.032L222.154 9.582C222.262 8.526 222.538 7.626 222.982 6.882C223.426 6.138 223.996 5.568 224.692 5.172C225.388 4.764 226.168 4.56 227.032 4.56ZM244.441 11.904C244.441 12.588 244.249 13.182 243.865 13.686C243.481 14.19 242.899 14.58 242.119 14.856C241.339 15.12 240.361 15.252 239.185 15.252C237.973 15.252 236.923 15.102 236.035 14.802C235.147 14.49 234.457 14.058 233.965 13.506C233.485 12.942 233.227 12.294 233.191 11.562H235.567C235.639 11.946 235.831 12.288 236.143 12.588C236.467 12.876 236.887 13.098 237.403 13.254C237.931 13.41 238.531 13.488 239.203 13.488C240.175 13.488 240.907 13.374 241.399 13.146C241.891 12.906 242.137 12.546 242.137 12.066C242.137 11.742 241.969 11.496 241.633 11.328C241.309 11.16 240.691 11.034 239.779 10.95L237.781 10.77C236.701 10.674 235.849 10.482 235.225 10.194C234.601 9.894 234.157 9.534 233.893 9.114C233.629 8.682 233.497 8.226 233.497 7.746C233.497 7.05 233.713 6.468 234.145 6C234.577 5.532 235.177 5.178 235.945 4.938C236.713 4.686 237.607 4.56 238.627 4.56C239.683 4.56 240.625 4.71 241.453 5.01C242.281 5.298 242.941 5.706 243.433 6.234C243.925 6.75 244.201 7.35 244.261 8.034H241.885C241.837 7.758 241.693 7.494 241.453 7.242C241.225 6.978 240.871 6.762 240.391 6.594C239.923 6.414 239.293 6.324 238.501 6.324C237.661 6.324 237.001 6.432 236.521 6.648C236.053 6.864 235.819 7.182 235.819 7.602C235.819 7.866 235.963 8.094 236.251 8.286C236.539 8.466 237.073 8.592 237.853 8.664L240.427 8.898C241.459 8.994 242.263 9.18 242.839 9.456C243.427 9.72 243.841 10.062 244.081 10.482C244.321 10.902 244.441 11.376 244.441 11.904ZM266.992 14.1H266.092L270.232 1.5H272.716L268.144 15H265.12L260.566 2.634H261.682L257.128 15H254.104L249.532 1.5H252.034L256.156 14.1L255.292 14.082L259.846 1.5H262.42L266.992 14.1ZM274.218 4.74L275.388 4.956L276.558 4.74V15H274.218V4.74ZM275.388 3.462C274.944 3.462 274.578 3.342 274.29 3.102C274.002 2.85 273.858 2.526 273.858 2.13C273.858 1.734 274.002 1.416 274.29 1.176C274.578 0.924 274.944 0.797999 275.388 0.797999C275.844 0.797999 276.21 0.924 276.486 1.176C276.774 1.416 276.918 1.734 276.918 2.13C276.918 2.526 276.774 2.85 276.486 3.102C276.21 3.342 275.844 3.462 275.388 3.462ZM278.548 4.812H280.888L281.5 8.484V15H279.16V8.142L278.548 4.812ZM285.55 4.56C286.51 4.56 287.326 4.752 287.998 5.136C288.67 5.52 289.18 6.072 289.528 6.792C289.888 7.5 290.068 8.358 290.068 9.366V15H287.728V9.744C287.728 8.676 287.476 7.872 286.972 7.332C286.48 6.78 285.754 6.504 284.794 6.504C284.134 6.504 283.552 6.654 283.048 6.954C282.556 7.242 282.172 7.65 281.896 8.178C281.632 8.706 281.5 9.324 281.5 10.032L280.672 9.582C280.78 8.526 281.056 7.626 281.5 6.882C281.944 6.138 282.514 5.568 283.21 5.172C283.906 4.764 284.686 4.56 285.55 4.56Z" fill="#F0F0F0"/>
</svg>
